<svg width="65" height="87" viewBox="0 0 65 87" fill="none" xmlns="http://www.w3.org/2000/svg">
<path fill-rule="evenodd" clip-rule="evenodd" d="M7.43798 20.5057C6.5352 20.5057 5.66369 20.8691 5.01674 21.5251C4.36886 22.182 4 23.0788 4 24.0197V54.3466C4 55.4512 3.10457 56.3466 2 56.3466C0.89543 56.3466 0 55.4512 0 54.3466V24.0197C0 22.0357 0.776995 20.1276 2.16876 18.7163C3.56144 17.3042 5.45628 16.5057 7.43798 16.5057C9.41969 16.5057 11.3145 17.3042 12.7072 18.7163C14.099 20.1276 14.876 22.0357 14.876 24.0197V43.3186C14.876 44.4232 13.9805 45.3186 12.876 45.3186C11.7714 45.3186 10.876 44.4232 10.876 43.3186V24.0197C10.876 23.0788 10.5071 22.182 9.85923 21.5251C9.21227 20.8691 8.34077 20.5057 7.43798 20.5057Z" fill="black"/>
<path fill-rule="evenodd" clip-rule="evenodd" d="M18.5504 9.65909C17.5577 9.65909 16.6167 10.0428 15.9318 10.7084C15.2487 11.3722 14.876 12.2599 14.876 13.1731V43.5C14.876 44.6046 13.9805 45.5 12.876 45.5C11.7714 45.5 10.876 44.6046 10.876 43.5V13.1731C10.876 11.1614 11.6989 9.24419 13.1442 7.83975C14.5875 6.43721 16.5332 5.65909 18.5504 5.65909C20.5676 5.65909 22.5133 6.43721 23.9566 7.83975C25.4019 9.24419 26.2248 11.1614 26.2248 13.1731V40.743C26.2248 41.8476 25.3294 42.743 24.2248 42.743C23.1202 42.743 22.2248 41.8476 22.2248 40.743V13.1731C22.2248 12.2599 21.852 11.3722 21.169 10.7084C20.4841 10.0428 19.5431 9.65909 18.5504 9.65909Z" fill="black"/>
<path fill-rule="evenodd" clip-rule="evenodd" d="M40.775 12.4886C39.7787 12.4886 38.8364 12.8716 38.1522 13.5327C37.4704 14.1915 37.1006 15.07 37.1006 15.9709V40.8123C37.1006 41.9169 36.2052 42.8123 35.1006 42.8123C33.996 42.8123 33.1006 41.9169 33.1006 40.8123V15.9709C33.1006 13.9638 33.9265 12.0534 35.3729 10.656C36.817 9.26077 38.7614 8.48862 40.775 8.48862C42.7886 8.48862 44.733 9.26077 46.1771 10.656C47.6235 12.0534 48.4494 13.9638 48.4494 15.9709V54.3466C48.4494 55.4511 47.554 56.3466 46.4494 56.3466C45.3449 56.3466 44.4494 55.4511 44.4494 54.3466V15.9709C44.4494 15.07 44.0796 14.1915 43.3978 13.5327C42.7136 12.8716 41.7713 12.4886 40.775 12.4886Z" fill="black"/>
<path fill-rule="evenodd" clip-rule="evenodd" d="M29.6626 4C28.761 4 27.8899 4.36353 27.2427 5.02107C26.5944 5.67968 26.2246 6.57956 26.2246 7.52435V40.6705C26.2246 41.775 25.3292 42.6705 24.2246 42.6705C23.12 42.6705 22.2246 41.775 22.2246 40.6705V7.52435C22.2246 5.53885 23.0007 3.62844 24.392 2.21502C25.7844 0.800525 27.6797 0 29.6626 0C31.6455 0 33.5408 0.800525 34.9331 2.21502C36.3245 3.62844 37.1006 5.53885 37.1006 7.52435V40.6705C37.1006 41.775 36.2051 42.6705 35.1006 42.6705C33.996 42.6705 33.1006 41.775 33.1006 40.6705V7.52435C33.1006 6.57956 32.7308 5.67968 32.0825 5.02107C31.4353 4.36353 30.5641 4 29.6626 4Z" fill="black"/>
<path fill-rule="evenodd" clip-rule="evenodd" d="M50.9181 38.2914C52.9678 34.3931 57.8149 33.4441 61.3548 35.4576C63.1656 36.4873 64.3204 38.0453 64.777 39.8978C65.2203 41.6958 64.9732 43.6216 64.3007 45.4474C64.3003 45.4484 64.2999 45.4495 64.2996 45.4505L55.168 70.423C55.1574 70.4518 55.1462 70.4804 55.1344 70.5087C53.2919 74.9084 50.6738 79.089 46.3721 82.1464C42.0618 85.2101 36.2678 87 28.3379 87C20.2564 87 13.1 84.2942 7.97883 78.7263C2.8724 73.1745 0 65.0074 0 54.4722C0 53.3676 0.89543 52.4722 2 52.4722C3.10457 52.4722 4 53.3676 4 54.4722C4 64.3005 6.67243 71.3973 10.9229 76.0185C15.1586 80.6237 21.1712 83 28.3379 83C35.6563 83 40.5803 81.3556 44.0548 78.8861C47.5258 76.419 49.756 72.9831 51.4273 69.0055L60.5446 44.0719L60.5464 44.0671C61.0271 42.7629 61.0948 41.6727 60.8933 40.8552C60.7049 40.0911 60.2543 39.4333 59.3776 38.9348L59.3773 38.9346C57.565 37.9036 55.3834 38.4971 54.4964 40.0831L48.2058 55.2389C47.7823 56.2591 46.6121 56.7428 45.5919 56.3194C44.5717 55.8959 44.0879 54.7257 44.5114 53.7055L50.8411 38.4554C50.8643 38.3996 50.89 38.3449 50.9181 38.2914Z" fill="black"/>
<path fill-rule="evenodd" clip-rule="evenodd" d="M31.3461 57.1389C31.4944 57.161 31.6442 57.172 31.7941 57.172C32.8932 57.172 33.9611 56.5919 34.8033 55.5381C35.5528 54.6001 36.0737 53.3374 36.2718 51.9808C36.7404 48.7539 35.3129 45.9659 33.022 45.6285C32.8737 45.6065 32.724 45.5954 32.574 45.5954C31.4763 45.5968 30.4063 46.1762 29.5655 47.2279C28.8153 48.1652 28.2916 49.4293 28.0963 50.788C27.6277 54.015 29.0552 56.8029 31.3461 57.1389ZM22.8085 57.1721C21.7101 57.1721 20.6414 56.5919 19.7993 55.5381C19.0491 54.6001 18.5254 53.3374 18.33 51.9823C17.8615 48.7539 19.289 45.966 21.5799 45.63C21.7282 45.6079 21.8779 45.5968 22.0279 45.5968C23.1255 45.5968 24.1956 46.1763 25.0364 47.2279C25.7866 48.1653 26.3103 49.4294 26.5063 50.7866C26.9748 54.015 25.5474 56.803 23.2565 57.1389C23.1082 57.161 22.9584 57.1721 22.8085 57.1721ZM43.8891 55.1076C43.4963 54.1766 42.8438 53.5054 42.0016 53.1673L41.9903 53.1631C41.607 53.0133 41.1989 52.9367 40.7872 52.9372H40.7419C38.8141 52.9661 36.8459 54.6001 35.8452 57.0034C35.1113 58.7608 35.027 60.651 35.6201 62.0598C36.0122 62.9914 36.6661 63.6627 37.5118 64.0008L37.521 64.0043C37.9044 64.1539 38.3125 64.2305 38.7242 64.2301C40.6704 64.2301 42.6591 62.5962 43.6782 60.1612C44.4029 58.4058 44.4829 56.5171 43.8891 55.1076ZM36.1864 65.473C35.0746 64.8067 34.0236 64.1765 33.3371 63.0443C31.4433 59.9106 30.2996 58.019 27.301 58.019C24.3024 58.019 23.1559 59.9106 21.2578 63.0443C20.5706 64.1767 19.519 64.8076 18.4049 65.4759L18.4014 65.478L18.4013 65.4781C17.1225 66.2445 15.8012 67.0365 15.2308 68.5948C15.0091 69.1566 14.8974 69.7556 14.9017 70.3593C14.9017 72.8967 16.8834 74.9612 19.3179 74.9612C20.5741 74.9612 21.911 74.5271 23.3257 74.0677C24.686 73.6258 26.0922 73.1692 27.3081 73.1692C28.5239 73.1692 29.9266 73.6258 31.2819 74.0677L31.3201 74.08C32.7178 74.5321 34.0357 74.9584 35.2841 74.9584C37.7151 74.9584 39.6932 72.8939 39.6932 70.3565C39.6952 69.7523 39.5811 69.1534 39.357 68.592C38.7867 67.0324 37.465 66.2398 36.1871 65.4734L36.1864 65.473ZM17.0907 64.0008L17.0808 64.0043C16.6982 64.1539 16.2908 64.2305 15.8798 64.2301C13.9357 64.2301 11.9477 62.5955 10.9335 60.1633C10.2011 58.4058 10.1175 56.5178 10.7106 55.1062C11.102 54.1752 11.7552 53.5019 12.5974 53.1666L12.6073 53.1631C12.9906 53.0132 13.3987 52.9366 13.8104 52.9372C15.7545 52.9372 17.7425 54.5719 18.7567 57.0041C19.4892 58.7615 19.5727 60.6496 18.9796 62.0612C18.5883 62.9922 17.935 63.6627 17.0907 64.0008Z" fill="#FFC41E"/>
</svg>
