<svg width="93" height="73" viewBox="0 0 93 73" fill="none" xmlns="http://www.w3.org/2000/svg">
<path fill-rule="evenodd" clip-rule="evenodd" d="M13.8814 13.846L0 13.846V28.757H13.8814V42.603H28.8303V28.757H42.7111V13.846L28.8303 13.846V0H13.8814V13.846ZM17.8814 4V17.846L4 17.846V24.757H17.8814V38.603H24.8303V24.757H38.7111V17.846L24.8303 17.846V4H17.8814Z" fill="#FFC41E"/>
<path d="M43.745 37.9577L62.5742 44.4733V71.0532C62.5742 71.5695 62.3625 72.0647 61.9857 72.4298C61.6089 72.7949 61.0979 73 60.565 73H52.5279C51.9951 73 51.484 72.7949 51.1072 72.4298C50.7304 72.0647 50.5187 71.5695 50.5187 71.0532V57.4256H30.4261V71.0532C30.4261 71.5695 30.2144 72.0647 29.8376 72.4298C29.4608 72.7949 28.9497 73 28.4168 73H20.3798C19.8469 73 19.3358 72.7949 18.959 72.4298C18.5822 72.0647 18.3705 71.5695 18.3705 71.0532V45.0257C13.704 43.4136 10.3335 39.133 10.3335 34.0641C10.3335 33.0314 10.7569 32.0411 11.5105 31.3109C12.2641 30.5807 13.2862 30.1705 14.352 30.1705C15.4178 30.1705 16.4399 30.5807 17.1935 31.3109C17.9472 32.0411 18.3705 33.0314 18.3705 34.0641C18.3725 35.0961 18.7965 36.0853 19.5497 36.8151C20.3029 37.5449 21.3239 37.9557 22.3891 37.9577H43.745ZM74.6298 24.3301V28.2237C74.6298 30.289 73.783 32.2697 72.2758 33.73C70.7686 35.1904 68.7243 36.0109 66.5928 36.0109H62.5742V40.3401L46.5002 34.7783V16.5429C46.5002 14.809 48.6626 13.9403 49.9297 15.1668L53.3555 18.4897H60.0903C61.4604 18.4897 63.0728 19.4534 63.6844 20.6421L64.5835 22.3833H72.6205C73.1534 22.3833 73.6645 22.5884 74.0413 22.9535C74.4181 23.3186 74.6298 23.8138 74.6298 24.3301ZM60.565 24.3301C60.565 23.945 60.4471 23.5686 60.2264 23.2485C60.0056 22.9284 59.6918 22.6788 59.3246 22.5315C58.9575 22.3841 58.5535 22.3456 58.1637 22.4207C57.774 22.4958 57.416 22.6812 57.135 22.9535C56.854 23.2258 56.6626 23.5726 56.5851 23.9503C56.5075 24.3279 56.5473 24.7194 56.6994 25.0751C56.8515 25.4308 57.109 25.7349 57.4394 25.9488C57.7699 26.1627 58.1583 26.2769 58.5557 26.2769C59.0886 26.2769 59.5997 26.0718 59.9765 25.7067C60.3533 25.3416 60.565 24.8464 60.565 24.3301Z" fill="#242424"/>
<path d="M93.0003 60.9749C93.0003 67.6746 87.4835 73 80.5429 73H69.8651C62.9246 73 57.4077 67.6746 57.4077 60.9749V55.8214H93.0003V60.9749Z" fill="#FFC41E"/>
</svg>
