<svg width="93" height="67" viewBox="0 0 93 67" fill="none" xmlns="http://www.w3.org/2000/svg">
<path fill-rule="evenodd" clip-rule="evenodd" d="M36.5615 5.2763C36.5615 3.87694 37.1168 2.53489 38.1051 1.54539C39.0934 0.555894 40.4339 0 41.8316 0L73.4522 0C74.8499 0 76.1904 0.555894 77.1787 1.54539C78.167 2.53489 78.7223 3.87694 78.7223 5.2763V18.4671H36.5615V5.2763ZM66.8646 7.91445C66.5151 7.91445 66.18 8.05343 65.9329 8.3008C65.6859 8.54818 65.5471 8.88369 65.5471 9.23353V11.8717C65.5471 12.2215 65.6859 12.557 65.9329 12.8044C66.18 13.0518 66.5151 13.1908 66.8646 13.1908L72.1347 13.1908C72.4841 13.1908 72.8192 13.0518 73.0663 12.8044C73.3134 12.557 73.4522 12.2215 73.4522 11.8717V9.23353C73.4522 8.88369 73.3134 8.54818 73.0663 8.3008C72.8192 8.05343 72.4841 7.91445 72.1347 7.91445H66.8646Z" fill="#FFC41E"/>
<path d="M36.5615 23.7433V26.3815C36.5615 27.7809 37.1168 29.1229 38.1051 30.1124C39.0934 31.1019 40.4339 31.6578 41.8316 31.6578H73.4522C74.8499 31.6578 76.1904 31.1019 77.1787 30.1124C78.167 29.1229 78.7223 27.7809 78.7223 26.3815V23.7433H36.5615Z" fill="#FFC41E"/>
<path fill-rule="evenodd" clip-rule="evenodd" d="M4 28.6338V62H10.3347V28.6338H4ZM2 24.6338C0.895431 24.6338 0 25.5292 0 26.6338V64C0 65.1046 0.895431 66 2 66H12.3347C13.4392 66 14.3347 65.1046 14.3347 64V26.6338C14.3347 25.5292 13.4392 24.6338 12.3347 24.6338H2Z" fill="#242424"/>
<path fill-rule="evenodd" clip-rule="evenodd" d="M16.8535 31.6578H20.8535V57.139C23.1216 57.2433 24.8365 57.518 26.5212 57.8178C26.7316 57.8552 26.9408 57.8929 27.1502 57.9306C29.037 58.2704 30.9344 58.612 33.7345 58.7869L33.9772 58.802L34.2092 58.8749C45.2169 62.3331 51.581 63.3588 56.4289 62.8894C61.2109 62.4263 64.7134 60.5004 70.1241 57.3642C73.9255 55.1608 80.23 50.3009 84.7084 46.6326C87.6659 43.6996 88.6743 42.1342 88.9379 41.3374C88.9949 41.1653 89.0011 41.0753 88.9993 41.0399C88.9953 41.0308 88.9821 41.0047 88.9483 40.9583C88.899 40.8907 88.8211 40.8001 88.6902 40.6691C88.1596 40.1379 87.7295 39.9304 87.3944 39.8498C87.0565 39.7685 86.6489 39.7764 86.1013 39.9427C84.8908 40.3102 83.4587 41.2865 81.5037 42.7545C81.2522 42.9434 80.9941 43.1389 80.7294 43.3394C77.1493 46.052 72.3676 49.6749 66.2162 50.1148C61.5327 50.4497 55.3061 50.2308 49.8569 49.9387C47.6508 49.8204 45.5911 49.6917 43.7944 49.5795C41.057 49.4085 38.93 49.2757 37.8259 49.2757V45.2757C39.0446 45.2757 41.4082 45.4227 44.3002 45.6027C46.0726 45.713 48.0435 45.8357 50.0711 45.9444C55.5246 46.2368 61.5247 46.4401 65.9309 46.125C70.8527 45.773 74.7342 42.8474 78.4717 40.0302C78.6822 39.8716 78.8922 39.7133 79.1019 39.5558C80.9414 38.1746 82.9349 36.7238 84.9392 36.1152C85.9989 35.7934 87.146 35.676 88.3299 35.9607C89.5165 36.2462 90.5752 36.8961 91.5203 37.8423C91.9195 38.242 92.4669 38.8496 92.7707 39.7063C93.0963 40.6244 93.0657 41.5955 92.7355 42.5937C92.1381 44.3996 90.4568 46.5737 87.4552 49.5419L87.3889 49.6075L87.3169 49.6665C82.8465 53.3316 76.2664 58.4274 72.13 60.8249C66.7848 63.9232 62.5777 66.3126 56.8145 66.8707C51.1569 67.4186 44.1981 66.1924 33.2408 62.7633C30.3324 62.5688 28.2924 62.2011 26.4442 61.8679C26.2342 61.83 26.0266 61.7926 25.8205 61.7559C23.7913 61.3949 21.8517 61.0946 18.8535 61.0946H16.8535V31.6578ZM88.9962 41.0216C88.9969 41.0212 88.9986 41.0264 88.9993 41.0388C88.9959 41.0282 88.9956 41.022 88.9962 41.0216Z" fill="#242424"/>
<path fill-rule="evenodd" clip-rule="evenodd" d="M19.5105 33.4567C18.7138 33.5318 17.9759 33.6014 17.3208 33.6518L17.0137 29.6637C17.5509 29.6223 18.2204 29.5594 18.9746 29.4886C20.6052 29.3355 22.6319 29.1451 24.574 29.0545C26.0211 28.987 27.5023 28.9687 28.8617 29.0603C30.1915 29.1499 31.5463 29.3523 32.6671 29.8012C35.1591 30.7992 36.8845 32.3823 38.1858 33.6539C38.3522 33.8165 38.5072 33.9696 38.6539 34.1143C39.1103 34.5649 39.4848 34.9345 39.864 35.2594C40.3513 35.6768 40.6802 35.8684 40.9236 35.9499C43.3869 36.7744 46.7595 37.1478 50.0821 37.3375C51.6671 37.428 53.1943 37.4749 54.5603 37.5169L54.6997 37.5211C56.0722 37.5633 57.331 37.6029 58.2445 37.686C58.5924 37.7177 58.9757 37.7474 59.3852 37.7792C61.4715 37.9411 64.2414 38.1561 66.5207 38.9498C67.9312 39.441 69.3655 40.2153 70.4095 41.5075C71.492 42.8475 71.9979 44.5496 71.8638 46.5643C71.7561 48.1813 70.5104 49.0365 69.6172 49.4386C68.6778 49.8615 67.5003 50.0946 66.2919 50.2355C63.8374 50.5217 60.5872 50.4947 57.1931 50.35C54.2146 50.2231 51.0316 50.0003 48.0489 49.7916C47.6104 49.7609 47.1762 49.7305 46.7477 49.7008C43.3712 49.4665 40.3782 49.2756 38.2476 49.2756V45.2756C40.5439 45.2756 43.6837 45.4786 47.0245 45.7104C47.457 45.7404 47.8935 45.7709 48.3329 45.8017C51.321 46.0107 54.444 46.2292 57.3635 46.3537C60.7345 46.4974 63.7128 46.5091 65.8287 46.2624C66.8238 46.1464 67.4913 45.9871 67.8841 45.8298C67.8655 44.9582 67.6119 44.4098 67.298 44.0212C66.8927 43.5196 66.2189 43.0803 65.2052 42.7273C63.4661 42.1217 61.3488 41.9521 59.2556 41.7845C58.7951 41.7476 58.3358 41.7109 57.8819 41.6696C57.1158 41.5998 55.997 41.5629 54.5768 41.5192L54.4236 41.5145C53.0662 41.4729 51.4927 41.4245 49.8541 41.331C46.4972 41.1393 42.6621 40.7499 39.654 39.7431C38.6984 39.4232 37.9091 38.8517 37.2619 38.2973C36.7644 37.8712 36.2517 37.3646 35.7735 36.8922C35.6428 36.7631 35.5146 36.6365 35.3901 36.5147C34.1622 35.3148 32.904 34.2049 31.18 33.5145C30.6362 33.2967 29.771 33.1307 28.5928 33.0513C27.4443 32.9739 26.1296 32.9862 24.7605 33.0501C22.904 33.1368 21.0915 33.3077 19.5105 33.4567ZM68.1473 45.6999C68.1478 45.7 68.1432 45.7037 68.1322 45.7107C68.1414 45.7033 68.1469 45.6998 68.1473 45.6999Z" fill="#242424"/>
</svg>
