<svg width="40" height="40" viewBox="0 0 40 40" fill="none" xmlns="http://www.w3.org/2000/svg">
<path fill-rule="evenodd" clip-rule="evenodd" d="M20 37.5C24.6413 37.5 29.0925 35.6563 32.3744 32.3744C35.6563 29.0925 37.5 24.6413 37.5 20C37.5 15.3587 35.6563 10.9075 32.3744 7.62563C29.0925 4.34374 24.6413 2.5 20 2.5C15.3587 2.5 10.9075 4.34374 7.62563 7.62563C4.34374 10.9075 2.5 15.3587 2.5 20C2.5 24.6413 4.34374 29.0925 7.62563 32.3744C10.9075 35.6563 15.3587 37.5 20 37.5ZM20 40C25.3043 40 30.3914 37.8929 34.1421 34.1421C37.8929 30.3914 40 25.3043 40 20C40 14.6957 37.8929 9.60859 34.1421 5.85786C30.3914 2.10714 25.3043 0 20 0C14.6957 0 9.60859 2.10714 5.85786 5.85786C2.10714 9.60859 0 14.6957 0 20C0 25.3043 2.10714 30.3914 5.85786 34.1421C9.60859 37.8929 14.6957 40 20 40Z" fill="#242424"/>
<path fill-rule="evenodd" clip-rule="evenodd" d="M20.885 28.385C21.0014 28.2689 21.0938 28.1309 21.1568 27.9791C21.2198 27.8272 21.2523 27.6644 21.2523 27.5C21.2523 27.3356 21.2198 27.1728 21.1568 27.0209C21.0938 26.869 21.0014 26.7311 20.885 26.615L14.2675 20L20.885 13.385C21.0013 13.2688 21.0934 13.1308 21.1563 12.979C21.2192 12.8271 21.2516 12.6644 21.2516 12.5C21.2516 12.3356 21.2192 12.1729 21.1563 12.021C21.0934 11.8692 21.0013 11.7312 20.885 11.615C20.7688 11.4988 20.6308 11.4066 20.479 11.3437C20.3271 11.2808 20.1644 11.2484 20 11.2484C19.8357 11.2484 19.6729 11.2808 19.5211 11.3437C19.3692 11.4066 19.2313 11.4988 19.115 11.615L11.615 19.115C11.4986 19.2311 11.4063 19.369 11.3433 19.5209C11.2802 19.6728 11.2478 19.8356 11.2478 20C11.2478 20.1644 11.2802 20.3272 11.3433 20.4791C11.4063 20.6309 11.4986 20.7689 11.615 20.885L19.115 28.385C19.2312 28.5014 19.3691 28.5938 19.521 28.6568C19.6728 28.7198 19.8356 28.7522 20 28.7522C20.1645 28.7522 20.3273 28.7198 20.4791 28.6568C20.631 28.5938 20.7689 28.5014 20.885 28.385Z" fill="#242424"/>
<path fill-rule="evenodd" clip-rule="evenodd" d="M28.75 20C28.75 19.6685 28.6183 19.3505 28.3839 19.1161C28.1495 18.8817 27.8315 18.75 27.5 18.75H15C14.6685 18.75 14.3505 18.8817 14.1161 19.1161C13.8817 19.3505 13.75 19.6685 13.75 20C13.75 20.3315 13.8817 20.6495 14.1161 20.8839C14.3505 21.1183 14.6685 21.25 15 21.25H27.5C27.8315 21.25 28.1495 21.1183 28.3839 20.8839C28.6183 20.6495 28.75 20.3315 28.75 20Z" fill="#242424"/>
</svg>
