<svg width="40" height="40" viewBox="0 0 40 40" fill="none" xmlns="http://www.w3.org/2000/svg">
<path fill-rule="evenodd" clip-rule="evenodd" d="M20 37.5C24.6413 37.5 29.0925 35.6563 32.3744 32.3744C35.6563 29.0925 37.5 24.6413 37.5 20C37.5 15.3587 35.6563 10.9075 32.3744 7.62563C29.0925 4.34374 24.6413 2.5 20 2.5C15.3587 2.5 10.9075 4.34374 7.62563 7.62563C4.34374 10.9075 2.5 15.3587 2.5 20C2.5 24.6413 4.34374 29.0925 7.62563 32.3744C10.9075 35.6563 15.3587 37.5 20 37.5ZM20 40C25.3043 40 30.3914 37.8929 34.1421 34.1421C37.8929 30.3914 40 25.3043 40 20C40 14.6957 37.8929 9.60859 34.1421 5.85786C30.3914 2.10714 25.3043 0 20 0C14.6957 0 9.60859 2.10714 5.85786 5.85786C2.10714 9.60859 0 14.6957 0 20C0 25.3043 2.10714 30.3914 5.85786 34.1421C9.60859 37.8929 14.6957 40 20 40Z" fill="#242424"/>
<path fill-rule="evenodd" clip-rule="evenodd" d="M19.1149 28.385C18.9985 28.2689 18.9061 28.1309 18.8431 27.9791C18.7801 27.8272 18.7477 27.6644 18.7477 27.5C18.7477 27.3356 18.7801 27.1728 18.8431 27.0209C18.9061 26.869 18.9985 26.7311 19.1149 26.615L25.7324 20L19.1149 13.385C18.9987 13.2688 18.9065 13.1308 18.8436 12.979C18.7807 12.8271 18.7483 12.6644 18.7483 12.5C18.7483 12.3356 18.7807 12.1729 18.8436 12.021C18.9065 11.8692 18.9987 11.7312 19.1149 11.615C19.2311 11.4988 19.3691 11.4066 19.5209 11.3437C19.6728 11.2808 19.8355 11.2484 19.9999 11.2484C20.1642 11.2484 20.327 11.2808 20.4788 11.3437C20.6307 11.4066 20.7687 11.4988 20.8849 11.615L28.3849 19.115C28.5013 19.2311 28.5936 19.369 28.6567 19.5209C28.7197 19.6728 28.7521 19.8356 28.7521 20C28.7521 20.1644 28.7197 20.3272 28.6567 20.4791C28.5936 20.6309 28.5013 20.7689 28.3849 20.885L20.8849 28.385C20.7688 28.5014 20.6308 28.5938 20.479 28.6568C20.3271 28.7198 20.1643 28.7522 19.9999 28.7522C19.8355 28.7522 19.6727 28.7198 19.5208 28.6568C19.3689 28.5938 19.231 28.5014 19.1149 28.385Z" fill="#242424"/>
<path fill-rule="evenodd" clip-rule="evenodd" d="M11.25 20C11.25 19.6685 11.3817 19.3505 11.6161 19.1161C11.8505 18.8817 12.1685 18.75 12.5 18.75H25C25.3315 18.75 25.6495 18.8817 25.8839 19.1161C26.1183 19.3505 26.25 19.6685 26.25 20C26.25 20.3315 26.1183 20.6495 25.8839 20.8839C25.6495 21.1183 25.3315 21.25 25 21.25H12.5C12.1685 21.25 11.8505 21.1183 11.6161 20.8839C11.3817 20.6495 11.25 20.3315 11.25 20Z" fill="#242424"/>
</svg>
